<svg xmlns="http://www.w3.org/2000/svg" width="188" height="221" viewBox="0 0 188 221"><path d="M1.853,136.473,0,172S78.377,97.507,88.141,75.711,79.525,0,79.525,0L38.745,22.369Z" transform="translate(52 47)" fill="#9f616a"/><path d="M1.134,0l11.9,1.143S19.273,14.857,0,16Z" transform="translate(174 34)" fill="#9f616a"/><path d="M1.134,0l11.9,1.143S19.273,14.857,0,16Z" transform="translate(174 55)" fill="#9f616a"/><path d="M1.134,0l11.9,1.143S19.273,14.857,0,16Z" transform="translate(174 78)" fill="#9f616a"/><path d="M1.134,0l11.9,1.143S19.273,14.857,0,16Z" transform="translate(170 100)" fill="#9f616a"/><path d="M84,39.448h-.926V14.461a14.355,14.355,0,0,0-4.3-10.226A14.787,14.787,0,0,0,68.4,0H14.676A14.787,14.787,0,0,0,4.3,4.236,14.355,14.355,0,0,0,0,14.461V151.539a14.355,14.355,0,0,0,4.3,10.226A14.787,14.787,0,0,0,14.676,166H68.4a14.57,14.57,0,0,0,14.676-14.461V57.234H84Z" transform="translate(97)" fill="#3f3d56"/><path d="M75,10.767V147.233a10.734,10.734,0,0,1-3.171,7.613A10.86,10.86,0,0,1,64.171,158H10.829a10.86,10.86,0,0,1-7.657-3.153A10.734,10.734,0,0,1,0,147.233V10.767A10.734,10.734,0,0,1,3.172,3.153,10.86,10.86,0,0,1,10.829,0H17.3A5.09,5.09,0,0,0,17.8,4.785a5.153,5.153,0,0,0,4.27,2.262H52.479a5.155,5.155,0,0,0,4.268-2.263A5.092,5.092,0,0,0,57.242,0h6.929a10.86,10.86,0,0,1,7.657,3.153A10.735,10.735,0,0,1,75,10.767Z" transform="translate(103 3)" fill="#f1f1f1"/><path d="M0,.3,8,.328V.7L0,.672Z" transform="matrix(0.938, -0.346, 0.346, 0.938, 178.074, 37.413)" opacity="0.2"/><path d="M0,.3,8,.328V.7L0,.672Z" transform="matrix(0.938, -0.346, 0.346, 0.938, 178.074, 58.413)" opacity="0.2"/><path d="M0,.3,8,.328V.7L0,.672Z" transform="matrix(0.938, -0.346, 0.346, 0.938, 178.074, 82.413)" opacity="0.2"/><path d="M0,.307,3,.324V.693L0,.676Z" transform="translate(178.931 101.698) rotate(-25.639)" opacity="0.2"/><path d="M12,3.763,7.757,13.039,0,30V0L12,3.763Z" transform="translate(103 92)" fill="#9f616a"/><path d="M54,35.14C54,47.814,41.912,45.9,27,45.9S0,47.814,0,35.14,5.9,0,27,0C48.822,0,54,22.466,54,35.14Z" transform="translate(107 21)" fill="#2f2e41"/><path d="M15,8.841l1,6.18V57.626A10.734,10.734,0,0,1,14.569,63L4.522,45.584.9,9.109,0,0,13.615.284Z" transform="translate(161 94)" fill="#9f616a"/><path d="M75,27.057c-.474-1.546-1.278-4.159-2.2-7.072-1.622-5.132-3.607-11.208-4.785-14.1C65.767.355,54.312,2.57,54.312,2.57L15.066,1.094S13.6.9,7.022.024C4.263-.344,1.859,3.536,0,8.17V22.757l9.144.7a33.219,33.219,0,0,0-1.255,7.9c-.1,3.661.541,7.752,3.322,10.29,6,5.485,7.926,30.176,7.926,30.176L14.918,88H64.171A10.846,10.846,0,0,0,75,77.134V71.143a44.368,44.368,0,0,0-5.659-7.585L60.53,28.785l13.488-.234L75,28.532Z" transform="translate(103 75)" fill="#2f2e41"/><path d="M18.073,36A17.826,17.826,0,0,0,36,18.073,18.176,18.176,0,0,0,17.927,0,17.826,17.826,0,0,0,0,17.927,18.176,18.176,0,0,0,18.073,36Z" transform="translate(110.544 49) rotate(-45)" fill="#9f616a"/><path d="M0,20H7.328l3.233-9.231L11.208,20h3.5L16.6,14.615,16.974,20H43A19.81,19.81,0,0,0,23.386,0H19.614A19.81,19.81,0,0,0,0,20Z" transform="translate(112 28)" fill="#2f2e41"/><path d="M0,177.2l63.873-73.066,2.283-46.919L90.123,17.165,96.971,0s15.978,1.717,2.853,34.331L94.4,51.782h0C99.29,62.336,98.14,73.832,98.14,85.467v39.99c0,9.416-41.071,60.708-46.281,68.543h0Z" transform="translate(0 27)" fill="#9f616a"/><path d="M4.949,18,0,15.649l.169-.332L4.741,17.49,11.643,0,12,.132,4.949,18Z" transform="translate(91 28)" opacity="0.2"/><circle cx="10" cy="10" r="10" transform="translate(128 136)" fill="#fff"/><ellipse cx="7" cy="6.5" rx="7" ry="6.5" transform="translate(109 140)" fill="#fff"/><path d="M0,6.5A6.764,6.764,0,0,1,7,0a6.764,6.764,0,0,1,7,6.5A6.772,6.772,0,0,1,7,13,6.764,6.764,0,0,1,0,6.5Z" transform="translate(109 140)" fill="#cbcbcb"/><g transform="translate(112 142)"><path d="M6.142,5.565H.023L0,5.563,2.894.112a.195.195,0,0,1,.353,0L5.189,3.77l.093.175Z" transform="translate(0.185 0.312)" fill="#e5e5e5"/><path d="M5.293,3.959H0l1.026-1.62L1.1,2.222,2.436.111a.264.264,0,0,1,.2-.11.259.259,0,0,1,.206.084.259.259,0,0,1,.019.026Z" transform="translate(4.442 1.918)" fill="#e5e5e5"/></g><ellipse cx="7" cy="6.5" rx="7" ry="6.5" transform="translate(156 140)" fill="#fff"/><path d="M0,6.5A6.764,6.764,0,0,1,7,0a6.764,6.764,0,0,1,7,6.5A6.772,6.772,0,0,1,7,13,6.764,6.764,0,0,1,0,6.5Z" transform="translate(156 140)" fill="#cbcbcb"/><path d="M5.472,1.678,5.26,1.9V.319A.314.314,0,0,0,4.951,0H.31A.308.308,0,0,0,.042.159a.327.327,0,0,0,0,.319A.308.308,0,0,0,.31.637H4.642V1.9L4.43,1.678a.3.3,0,0,0-.337-.069A.319.319,0,0,0,3.9,1.9v.016a.324.324,0,0,0,.091.225l.74.762a.3.3,0,0,0,.437,0l.74-.762A.324.324,0,0,0,6,1.919V1.9a.319.319,0,0,0-.191-.294.3.3,0,0,0-.337.069Z" transform="translate(159 143)" fill="#e5e5e5"/><path d="M5.69,2.363H1.358V1.1l.211.218a.3.3,0,0,0,.337.069A.319.319,0,0,0,2.1,1.1V1.081A.324.324,0,0,0,2.007.855L1.268.093a.3.3,0,0,0-.437,0L.091.855A.324.324,0,0,0,0,1.081V1.1a.319.319,0,0,0,.191.294.3.3,0,0,0,.337-.069L.74,1.1V2.681A.314.314,0,0,0,1.049,3H5.69a.308.308,0,0,0,.269-.159.327.327,0,0,0,0-.319.308.308,0,0,0-.269-.159Z" transform="translate(159 145)" fill="#e5e5e5"/><rect width="16" height="1" transform="translate(106 17)" fill="#fff"/><rect width="16" height="1" transform="translate(130 17)" fill="#fff"/><rect width="16" height="1" transform="translate(156 17)" fill="#fff"/><rect width="16" height="1" transform="translate(106 130)" fill="#fff"/><rect width="16" height="1" transform="translate(130 130)" fill="#fff"/><rect width="16" height="1" transform="translate(156 130)" fill="#fff"/></svg>