<svg xmlns="http://www.w3.org/2000/svg" width="262" height="211" viewBox="0 0 262 211"><path d="M7.61,91.417C1.889,90.207-1.683,82.978.8,77.637c2.712-5.83,10.05-7.518,14.872-11.737,6.72-5.879,7.8-16.081,6.394-24.944s-4.8-17.4-5.221-26.372c-.254-5.4,1.23-11.738,6.137-13.893C25.958-.615,29.506.045,32.3,1.7a25.245,25.245,0,0,1,6.929,6.8A88.952,88.952,0,0,1,57,61.4c.015,5.722-.574,11.615-3.212,16.679C49.653,86.02,40.994,90.732,32.243,92.269s-17.72.354-26.525-.832" transform="translate(187 118)" fill="#f0f0f0"/><path d="M32.141,4.713a4.7,4.7,0,0,0-.463.572L10,4.742,7.473,0,0,2.981l3.682,8.84a3.485,3.485,0,0,0,3.636,2.153l24.491-3.036a4.521,4.521,0,0,0,4.988,1.57,4.753,4.753,0,0,0,.47-8.8,4.5,4.5,0,0,0-5.125,1Z" transform="translate(84 66)" fill="#ffb7b7"/><path d="M0,28H7.454L11,0H0V28Z" transform="translate(45 176)" fill="#ffb7b7"/><path d="M0,0H14.048A8.837,8.837,0,0,1,23,8.716V9H0Z" transform="translate(44 201)" fill="#2f2e41"/><path d="M10.58,30,17,27.144,9.475,0,0,4.215,10.58,30Z" transform="translate(100 173)" fill="#ffb7b7"/><path d="M0,6.351,13.032.735h0a9,9,0,0,1,11.852,4.8L25,5.805,3.663,15Z" transform="translate(108 195)" fill="#2f2e41"/><path d="M30.482,1.057,31,9.618,15.851,11.271,0,13,4.665,0,30.482,1.057Z" transform="translate(50 76)" fill="#ffb7b7"/><path d="M31.6,42.9c-.173-.067-17.424-6.71-28.021-1.278l-.261.134L1.2,31.456,0,9.312,7.838,5.646,10,.861,24.7,0l3.021,4.1L38,7.437,31.853,43Z" transform="translate(49 37)" fill="#e4e4e4"/><path d="M0,15.447l1.8-14.2L5.907,0l.069.026A5.176,5.176,0,0,1,8.911,4.011c.586,2.971,5,21.458,5.044,21.645l.044.185L3.63,30Z" transform="translate(81 45)" fill="#e4e4e4"/><path d="M62.193,116,76,113.174,53.932,52.406,46.379,31.679s-4.79-16.619-6.955-23.05L38.118,0,7.2,3.415S-1.437,16.071,1.187,36.7L0,114.233l13.807.707,11.565-78.2,20.3,42.867s6.4,18.293,10.975,22.258Z" transform="translate(43 82)" fill="#2f2e41"/><path d="M24.578,24.794a4.53,4.53,0,0,0-.719.04L9.6,8.527l1.659-5.012L4.092,0,.3,8.584a3.531,3.531,0,0,0,.928,4.105l18.7,16A4.618,4.618,0,0,0,22.187,33.4a4.527,4.527,0,0,0,5.165-.462,4.631,4.631,0,0,0,1.4-5.039,4.566,4.566,0,0,0-4.174-3.1Z" transform="translate(38 64)" fill="#ffb7b7"/><path d="M0,19.377,5.621,3.505C6.253,1.634,7.044.5,7.974.127A1.463,1.463,0,0,1,9.14.116l2.52,3.157L14,13.014,8,27Z" transform="translate(41 47)" fill="#e4e4e4"/><path d="M27.052,27H1.948A1.94,1.94,0,0,1,0,25.071V14.357A14.332,14.332,0,0,1,7.25,1.923a14.625,14.625,0,0,1,14.5,0A14.332,14.332,0,0,1,29,14.357h0V25.071A1.94,1.94,0,0,1,27.052,27Z" transform="translate(51 7)" fill="#2f2e41"/><circle cx="10.5" cy="10.5" r="10.5" transform="translate(58 13)" fill="#ffb7b7"/><path d="M25,11H9.713L9.556,8.926,8.773,11H6.419L6.108,6.889,4.555,11H0v-.2C.007,4.836,5.117.007,11.422,0h2.155C19.883.007,24.993,4.836,25,10.8Z" transform="translate(58 11)" fill="#2f2e41"/><path d="M11.129,20a1.891,1.891,0,0,1-.331-.03L0,18.044V0H11.887l-.294.347C7.5,5.175,10.583,13,12.786,17.241a1.881,1.881,0,0,1-.146,1.979A1.857,1.857,0,0,1,11.129,20Z" transform="translate(57 16)" fill="#2f2e41"/><path d="M6.6,20.245a4.329,4.329,0,0,0,1.831-3.126,4.379,4.379,0,0,0-1.16-3.447L14,0,6.3.917,1.091,13.76a4.419,4.419,0,0,0-.05,5.755,4.146,4.146,0,0,0,5.563.73Z" transform="translate(134 88)" fill="#ffb7b7"/><path d="M9,24H2.9L0,0H9V24Z" transform="translate(187 180)" fill="#ffb7b7"/><path d="M20,8H0V7.747A7.766,7.766,0,0,1,7.784,0H20Z" transform="translate(177 202)" fill="#2f2e41"/><path d="M9,24H2.9L0,0H9V24Z" transform="translate(153 180)" fill="#ffb7b7"/><path d="M20,8H0V7.747A7.767,7.767,0,0,1,7.784,0H20Z" transform="translate(142 202)" fill="#2f2e41"/><path d="M11.068,0,5,13.782,0,93l12.635-.5,3.451-37.764L26.732,21.1l6.12,37.5,2.527,32.9,10.455.447L50,0Z" transform="translate(150 104)" fill="#2f2e41"/><path d="M34.889,0,17.317.435,7,5.68,6.434,44.371,0,71.085s40.2,2.74,45.759-1.263L39.191,39.3,48,6.323Z" transform="translate(157 36)" fill="#fff"/><path d="M30,1.1,28.387,0S21.705,2.029,19.73,11.056c0,0-1.511,4.529-2.174,7.643C16.8,22.271,0,55.077,0,55.077L10.056,58,28.491,27.794Z" transform="translate(137 41)" fill="#fff"/><path d="M1.644,21.44a4.4,4.4,0,0,1-.905-3.5,4.287,4.287,0,0,1,2.009-2.97L0,0,7.046,3.046,8.575,16.791A4.4,4.4,0,0,1,7.1,22.309a4.054,4.054,0,0,1-5.457-.869Z" transform="translate(203 92)" fill="#ffb7b7"/><path d="M4.8.6,6.658,0s5.892,3.763,5.332,12.859c0,0,.221,4.707.01,7.84C11.758,24.293,15,60,15,60H4.5L0,27.664Z" transform="translate(197 42)" fill="#fff"/><path d="M24,12A12,12,0,1,1,12,0h0A11.97,11.97,0,0,1,24,11.94Q24,11.97,24,12Z" transform="translate(172 8)" fill="#ffb7b7"/><path d="M.517,3.305C1.929.234,4.662.841,7.051,1.882c3.026-.679,5.9-2.712,9.165-1.51C19.427,5.1,30.21,3.707,27.916,11.4c0,1.843,3.429.77,2.83,3.789C32.564,21,24.184,32,19.373,29.684c1.19-2.206,3.908-7.216-.215-7.713C10.29,30.318,18.243,6.078,7.1,13.128,3.412,16.543-1.639,6.721.517,3.305Z" transform="translate(171)" fill="#2f2e41"/><path d="M5.532,0a12.454,12.454,0,0,1-2,.048.44.44,0,0,0-.479.394l-1.274,9.95A4.125,4.125,0,0,1,.96,12.365a4.42,4.42,0,0,0-.929,3.284v16.9S-.051,34.8,1.612,34.8a23.089,23.089,0,0,0,5.994,0s1.331-.262,1.331-2.342V15.82a4.2,4.2,0,0,0-.822-3.309,4.233,4.233,0,0,1-.8-1.96L5.995.392A.44.44,0,0,0,5.532,0Z" transform="translate(140 81)" fill="#fff"/><path d="M1.956,34.808a1.718,1.718,0,0,1-1.256-.5A3.023,3.023,0,0,1,.032,32.3V15.7a4.455,4.455,0,0,1,1.039-3.427,3.656,3.656,0,0,0,.8-1.8L3.2.68A.744.744,0,0,1,4.019.05,13.558,13.558,0,0,0,6.052,0h.007a.739.739,0,0,1,.79.626l1.386,10a3.753,3.753,0,0,0,.777,1.794,4.207,4.207,0,0,1,.922,3.453V32.223c0,2.253-1.612,2.578-1.628,2.581a26.205,26.205,0,0,1-3.2.2A25.974,25.974,0,0,1,1.956,34.808Z" transform="translate(140 81)" fill="#3f3d56"/><path d="M3,0H5A2.949,2.949,0,0,1,7.121.909,3.16,3.16,0,0,1,8,3.1V10.9A3.053,3.053,0,0,1,5,14H3a2.949,2.949,0,0,1-2.121-.909A3.16,3.16,0,0,1,0,10.9V3.1A3.053,3.053,0,0,1,3,0Z" transform="translate(141 97)" fill="#fff"/><path d="M5.532,0a12.454,12.454,0,0,1-2,.048.44.44,0,0,0-.479.394l-1.274,9.95A4.125,4.125,0,0,1,.96,12.365a4.42,4.42,0,0,0-.929,3.284v16.9S-.051,34.8,1.612,34.8a23.089,23.089,0,0,0,5.994,0s1.331-.262,1.331-2.342V15.82a4.2,4.2,0,0,0-.822-3.309,4.233,4.233,0,0,1-.8-1.96L5.995.392A.44.44,0,0,0,5.532,0Z" transform="translate(112 52)" fill="#fff"/><path d="M1.956,34.808a1.718,1.718,0,0,1-1.256-.5A3.023,3.023,0,0,1,.032,32.3V15.7a4.455,4.455,0,0,1,1.039-3.427,3.656,3.656,0,0,0,.8-1.8L3.2.68A.744.744,0,0,1,4.019.05,13.558,13.558,0,0,0,6.052,0h.007a.739.739,0,0,1,.79.626l1.386,10a3.753,3.753,0,0,0,.777,1.794,4.207,4.207,0,0,1,.922,3.453V32.223c0,2.253-1.612,2.578-1.628,2.581a26.205,26.205,0,0,1-3.2.2A25.974,25.974,0,0,1,1.956,34.808Z" transform="translate(111 52)" fill="#3f3d56"/><path d="M3,0H5A2.949,2.949,0,0,1,7.121.909,3.16,3.16,0,0,1,8,3.1V10.9a3.16,3.16,0,0,1-.879,2.2A2.949,2.949,0,0,1,5,14H3a2.949,2.949,0,0,1-2.121-.909A3.16,3.16,0,0,1,0,10.9V3.1A3.053,3.053,0,0,1,3,0Z" transform="translate(112 68)" fill="#fff"/><ellipse cx="7.5" cy="7" rx="7.5" ry="7" transform="translate(117 20)" fill="#f0f0f0"/><ellipse cx="7.5" cy="7" rx="7.5" ry="7" transform="translate(101 108)" fill="#f0f0f0"/><ellipse cx="7.5" cy="7" rx="7.5" ry="7" transform="translate(132 140)" fill="#f0f0f0"/><path d="M261.52,1H.48A.49.49,0,0,1,0,.5.49.49,0,0,1,.48,0H261.52a.49.49,0,0,1,.48.5A.49.49,0,0,1,261.52,1Z" transform="translate(0 210)" fill="#cacaca"/></svg>